HIERARCHY
ROOT root
{
	OFFSET	0	13.1	24.9
	CHANNELS 6  Xposition Yposition Zposition Xrotation Yrotation Zrotation
	JOINT spine_1
	{
		OFFSET	0	9.99999	0
		CHANNELS 3  Xrotation Yrotation Zrotation
		JOINT spine_2
		{
			OFFSET	0	112	-10
			CHANNELS 3  Xrotation Yrotation Zrotation
			JOINT spine_3
			{
				OFFSET	0	206.5	19.3
				CHANNELS 3  Xrotation Yrotation Zrotation
				JOINT spine_4
				{
					OFFSET	0	110.4	14.6
					CHANNELS 3  Xrotation Yrotation Zrotation
					JOINT neck_1
					{
						OFFSET	0	71.8	-50.3
						CHANNELS 3  Xrotation Yrotation Zrotation
						JOINT neck_2
						{
							OFFSET	0	86.2	-25.8
							CHANNELS 3  Xrotation Yrotation Zrotation
							JOINT head_ee
							{
								OFFSET	0	179.8	-8.7
								CHANNELS 3  Xrotation Yrotation Zrotation
								End Site
								{
									OFFSET	1	0	0
								}
							}
						}
					}
					JOINT left_clavicle
					{
						OFFSET	-43.2	22.4	-70.8
						CHANNELS 3  Xrotation Yrotation Zrotation
						JOINT left_shoulder
						{
							OFFSET	-93.9	-5.79999	48.7
							CHANNELS 3  Xrotation Yrotation Zrotation
							JOINT left_elbow
							{
								OFFSET	-291.4	-30.8	15.2
								CHANNELS 3  Xrotation Yrotation Zrotation
								JOINT left_lowarm_twist
								{
									OFFSET	-110.7	-3.89999	13.6
									CHANNELS 3  Xrotation Yrotation Zrotation
									JOINT left_hand
									{
										OFFSET	-110.7	-3.89999	13.6
										CHANNELS 3  Xrotation Yrotation Zrotation
										JOINT left_ee
										{
											OFFSET	-80.8	-5.10001	12.1
											CHANNELS 3  Xrotation Yrotation Zrotation
											End Site
											{
												OFFSET	1	0	0
											}
										}
									}
								}
							}
						}
					}
					JOINT right_clavicle
					{
						OFFSET	43.2	22.4	-70.8
						CHANNELS 3  Xrotation Yrotation Zrotation
						JOINT right_shoulder
						{
							OFFSET	93.9	-5.79999	48.7
							CHANNELS 3  Xrotation Yrotation Zrotation
							JOINT right_elbow
							{
								OFFSET	291.4	-30.8	15.2
								CHANNELS 3  Xrotation Yrotation Zrotation
								JOINT right_lowarm_twist
								{
									OFFSET	110.7	-3.89999	13.6
									CHANNELS 3  Xrotation Yrotation Zrotation
									JOINT right_hand
									{
										OFFSET	110.7	-3.89999	13.6
										CHANNELS 3  Xrotation Yrotation Zrotation
										JOINT right_ee
										{
											OFFSET	80.8	-5.10001	12.1
											CHANNELS 3  Xrotation Yrotation Zrotation
											End Site
											{
												OFFSET	1	0	0
											}
										}
									}
								}
							}
						}
					}
				}
			}
		}
	}
	JOINT left_hip
	{
		OFFSET	-82.8	-127.5	0.300001
		CHANNELS 3  Xrotation Yrotation Zrotation
		JOINT left_knee
		{
			OFFSET	-28.2	-396.7	2.2
			CHANNELS 3  Xrotation Yrotation Zrotation
			JOINT left_ankle
			{
				OFFSET	-11.7	-411.3	35.4
				CHANNELS 3  Xrotation Yrotation Zrotation
				JOINT left_toes
				{
					OFFSET	0	-60	-88.6
					CHANNELS 3  Xrotation Yrotation Zrotation
					JOINT left_foot_ee
					{
						OFFSET	-22.5	-16.5	-42.2
						CHANNELS 3  Xrotation Yrotation Zrotation
						End Site
						{
							OFFSET	1	0	0
						}
					}
				}
			}
		}
	}
	JOINT right_hip
	{
		OFFSET	82.8	-127.5	0.300001
		CHANNELS 3  Xrotation Yrotation Zrotation
		JOINT right_knee
		{
			OFFSET	28.2	-396.7	2.2
			CHANNELS 3  Xrotation Yrotation Zrotation
			JOINT right_ankle
			{
				OFFSET	11.7	-411.3	35.4
				CHANNELS 3  Xrotation Yrotation Zrotation
				JOINT right_toes
				{
					OFFSET	0	-60	-88.6
					CHANNELS 3  Xrotation Yrotation Zrotation
					JOINT right_foot_ee
					{
						OFFSET	22.5	-16.5	-42.2
						CHANNELS 3  Xrotation Yrotation Zrotation
						End Site
						{
							OFFSET	1	0	0
						}
					}
				}
			}
		}
	}
}
MOTION
Frames: 5
Frame Time: 0.02
3177.02 653.055 -1669.29 -3.39607304194 44.1614328182 10.5720035705 0.496819 0.156643 -1.62221 0.498246 0.259538 -1.60896 0.491226 0.579034 -1.52345 0.488139 0.331199 -1.59576 -21.6309 19.9599 11.3532 -23.2215 33.1598 19.9953 -0.0 0.0 -0.0 -2.65515 -0.968207 -5.30515 -20.2459 -23.9809 90.2919 0.501455 -13.9504 0.0613512 -68.6239 -6.37053 5.28779 -1.36199 -4.75395 -11.2626 -0.0 0.0 -0.0 4.91515 20.039 -8.24933 7.89356 41.6692 -67.3247 2.31197 48.8673 -1.0505 28.2695 -0.116591 3.57291 1.8956 -22.1215 -20.3628 0.0 0.0 0.0 29.274 -0.490913 -21.843 -23.2677 0.242543 3.53789 15.213 7.69532 -2.12054 -10.4856 0.0 0.0 -0.0 0.0 -0.0 -9.97875 38.5344 -4.02264 -24.359 -0.218486 -3.70364 30.8011 -8.8834 3.97794 32.2196 -0.0 -0.0 0.0 0.0 0.0 
3152.29937173 658.771 -1668.17598123 -4.59399065271 43.7838207514 11.5023678286 0.750494 -0.0201677 -1.5104 0.75176 0.0759729 -1.50863 0.750037 0.372311 -1.46395 0.747072 0.136463 -1.50436 -20.3816 19.8738 9.993 -21.9214 33.3995 18.2822 -0.0 0.0 -0.0 -2.3991 -1.34352 -4.86182 -18.0764 -23.3825 89.8037 0.419514 -11.74 0.0431308 -68.975 -6.41528 5.29188 -1.36198 -2.22768 -10.1355 -0.0 0.0 -0.0 4.17374 19.7724 -6.67342 6.65087 41.504 -68.1729 2.42519 50.2189 -1.13666 25.4798 -0.183807 3.22292 1.80567 -24.5172 -20.4526 0.0 0.0 0.0 27.6652 1.40382 -19.9272 -20.5996 0.288029 3.13105 13.8331 10.542 -1.94129 -9.75535 0.0 0.0 -0.0 0.0 -0.0 -8.16544 40.0748 -4.97148 -25.152 -0.199026 -3.82377 29.4903 -11.1595 3.84769 34.7116 -0.0 -0.0 0.0 0.0 0.0 
3152.30369382 658.771 -1668.0838868 -4.61046789952 43.9966010572 11.5261349197 0.750494 -0.0201677 -1.5104 0.75176 0.0759729 -1.50863 0.750037 0.372311 -1.46395 0.747072 0.136463 -1.50436 -20.3816 19.8738 9.993 -21.9214 33.3995 18.2822 -0.0 0.0 -0.0 -2.3991 -1.34352 -4.86182 -18.0764 -23.3825 89.8037 0.419514 -11.74 0.0431308 -68.975 -6.41528 5.29188 -1.36198 -2.22768 -10.1355 -0.0 0.0 -0.0 4.17374 19.7724 -6.67342 6.65087 41.504 -68.1729 2.42519 50.2189 -1.13666 25.4798 -0.183807 3.22292 1.80567 -24.5172 -20.4526 0.0 0.0 0.0 27.6652 1.40382 -19.9272 -20.5996 0.288029 3.13105 13.8331 10.542 -1.94129 -9.75535 0.0 0.0 -0.0 0.0 -0.0 -8.16544 40.0748 -4.97148 -25.152 -0.199026 -3.82377 29.4903 -11.1595 3.84769 34.7116 -0.0 -0.0 0.0 0.0 0.0 
3152.30973711 658.771 -1667.96583693 -4.63186081622 44.2694000379 11.5568573782 0.750494 -0.0201677 -1.5104 0.75176 0.0759729 -1.50863 0.750037 0.372311 -1.46395 0.747072 0.136463 -1.50436 -20.3816 19.8738 9.993 -21.9214 33.3995 18.2822 -0.0 0.0 -0.0 -2.3991 -1.34352 -4.86182 -18.0764 -23.3825 89.8037 0.419514 -11.74 0.0431308 -68.975 -6.41528 5.29188 -1.36198 -2.22768 -10.1355 -0.0 0.0 -0.0 4.17374 19.7724 -6.67342 6.65087 41.504 -68.1729 2.42519 50.2189 -1.13666 25.4798 -0.183807 3.22292 1.80567 -24.5172 -20.4526 0.0 0.0 0.0 27.6652 1.40382 -19.9272 -20.5996 0.288029 3.13105 13.8331 10.542 -1.94129 -9.75535 0.0 0.0 -0.0 0.0 -0.0 -8.16544 40.0748 -4.97148 -25.152 -0.199026 -3.82377 29.4903 -11.1595 3.84769 34.7116 -0.0 -0.0 0.0 0.0 0.0 
3152.31965541 658.771 -1667.79217581 -4.66389822793 44.6708234973 11.6025897371 0.750494 -0.0201677 -1.5104 0.75176 0.0759729 -1.50863 0.750037 0.372311 -1.46395 0.747072 0.136463 -1.50436 -20.3816 19.8738 9.993 -21.9214 33.3995 18.2822 -0.0 0.0 -0.0 -2.3991 -1.34352 -4.86182 -18.0764 -23.3825 89.8037 0.419514 -11.74 0.0431308 -68.975 -6.41528 5.29188 -1.36198 -2.22768 -10.1355 -0.0 0.0 -0.0 4.17374 19.7724 -6.67342 6.65087 41.504 -68.1729 2.42519 50.2189 -1.13666 25.4798 -0.183807 3.22292 1.80567 -24.5172 -20.4526 0.0 0.0 0.0 27.6652 1.40382 -19.9272 -20.5996 0.288029 3.13105 13.8331 10.542 -1.94129 -9.75535 0.0 0.0 -0.0 0.0 -0.0 -8.16544 40.0748 -4.97148 -25.152 -0.199026 -3.82377 29.4903 -11.1595 3.84769 34.7116 -0.0 -0.0 0.0 0.0 0.0 
